<?xml version="1.0" encoding="UTF-8"?>
<!DOCTYPE svg PUBLIC "-//W3C//DTD SVG 1.1//EN" "http://www.w3.org/Graphics/SVG/1.1/DTD/svg11.dtd">
<svg version="1.1" xmlns="http://www.w3.org/2000/svg" xmlns:xlink="http://www.w3.org/1999/xlink" x="0" y="0" width="210" height="210" viewBox="0, 0, 210, 210">
  <g id="Layer_1">
    <g>
      <text transform="matrix(1, 0, 0, 1, 111.085, 105)">
        <tspan x="-41.777" y="49.656" font-family="ChalkboardSE-Bold" font-size="139" fill="#236D9D" fill-opacity="0">P</tspan>
      </text>
      <path d="M77.141,68.185 Q77.602,66.495 78.677,64.883 Q79.752,63.27 81.211,62.041 Q82.67,60.812 84.437,60.275 Q86.203,59.737 88.046,60.352 Q93.729,58.048 99.642,56.512 Q105.555,54.976 111.469,54.746 Q117.382,54.515 123.142,55.821 Q128.901,57.126 134.277,60.659 Q138.578,63.423 141.88,67.57 Q145.182,71.717 147.332,76.325 Q151.018,84.619 150.711,92.836 Q150.404,101.053 146.871,108.118 Q143.339,115.184 136.965,120.559 Q130.591,125.935 121.99,128.392 Q115.539,130.236 108.858,130.159 Q102.176,130.082 95.726,129.314 L95.726,144.212 Q95.726,145.902 95.879,147.745 Q96.033,149.588 95.956,151.431 Q95.879,153.274 95.495,155.041 Q95.111,156.807 94.036,158.343 Q92.193,161.415 89.275,162.106 Q86.357,162.797 83.669,161.799 Q80.981,160.8 79.061,158.42 Q77.141,156.039 77.141,152.66 L77.141,125.013 Q74.223,123.478 72.841,121.174 Q71.458,118.87 71.612,116.489 Q71.765,114.108 73.148,111.958 Q74.53,109.808 76.987,108.426 L76.987,69.106 z M121.836,74.943 Q115.385,72.332 108.704,73.407 Q102.023,74.482 95.726,77.4 L95.726,110.883 Q102.944,112.112 110.47,111.497 Q117.996,110.883 124.294,106.89 Q128.748,103.971 130.437,99.517 Q132.127,95.063 131.666,90.455 Q131.205,85.848 128.594,81.624 Q125.983,77.4 121.836,74.943 z" fill-opacity="0" stroke="#236D9D" stroke-width="7"/>
    </g>
    <path d="M105.5,188.25 C59.522,188.25 22.25,151.202 22.25,105.5 C22.25,59.799 59.522,22.75 105.5,22.75 C151.478,22.75 188.75,59.799 188.75,105.5 C188.75,151.202 151.478,188.25 105.5,188.25" fill-opacity="0" stroke="#236D9D" stroke-width="7"/>
  </g>
</svg>
