<?xml version="1.0" standalone="no"?>
<!DOCTYPE svg PUBLIC "-//W3C//DTD SVG 20010904//EN"
 "http://www.w3.org/TR/2001/REC-SVG-20010904/DTD/svg10.dtd">
<svg version="1.0" xmlns="http://www.w3.org/2000/svg"
 width="700.000000pt" height="700.000000pt" viewBox="0 0 700.000000 700.000000"
 preserveAspectRatio="xMidYMid meet">
<metadata>
Created by potrace 1.11, written by Peter Selinger 2001-2013
</metadata>
<g transform="translate(0.000000,700.000000) scale(0.100000,-0.100000)"
fill="#000000" stroke="none">
<path d="M3348 6355 c-2 -1 -39 -5 -83 -9 -158 -11 -366 -48 -515 -91 -139
-40 -175 -52 -275 -90 -300 -116 -574 -277 -836 -495 -93 -77 -291 -281 -379
-390 -221 -277 -382 -576 -502 -935 -11 -33 -22 -68 -24 -79 -2 -10 -10 -42
-18 -70 -21 -73 -53 -231 -61 -301 -4 -32 -8 -67 -10 -76 -16 -85 -22 -420
-10 -569 38 -475 200 -941 466 -1345 354 -537 888 -945 1509 -1151 103 -34
306 -86 385 -98 22 -4 67 -11 100 -16 129 -20 208 -25 420 -25 246 0 409 14
570 50 6 1 28 5 50 9 76 15 289 77 384 113 882 329 1541 1045 1787 1941 71
261 97 456 98 747 1 280 -22 469 -85 715 -97 376 -268 730 -501 1035 -302 394
-715 711 -1193 915 -200 86 -527 171 -750 196 -33 3 -69 8 -80 11 -22 5 -442
12 -447 8z m382 -240 c500 -43 946 -207 1347 -494 341 -245 633 -588 814 -954
27 -56 54 -110 59 -119 20 -36 90 -230 119 -328 35 -116 73 -301 86 -415 3
-28 8 -71 11 -95 7 -67 8 -365 0 -440 -14 -139 -18 -168 -38 -270 -37 -192
-48 -235 -105 -395 -57 -160 -114 -283 -211 -455 -42 -74 -150 -229 -228 -325
-260 -324 -668 -629 -1037 -776 -29 -12 -63 -26 -77 -32 -14 -6 -27 -11 -30
-12 -3 0 -41 -13 -85 -27 -85 -28 -187 -58 -220 -64 -11 -2 -40 -8 -65 -14
-169 -38 -334 -54 -550 -54 -193 0 -411 18 -471 38 -8 3 -32 8 -54 11 -22 3
-56 10 -75 15 -19 5 -46 11 -60 13 -50 9 -208 60 -320 104 -333 130 -631 325
-891 583 -213 210 -360 406 -488 651 -135 257 -248 606 -277 854 -3 28 -9 82
-14 120 -9 78 -5 481 6 564 10 81 69 356 93 438 151 515 481 992 922 1336 48
37 91 67 97 67 6 0 12 4 14 8 6 15 150 105 273 169 174 92 419 188 555 218 8
2 42 10 75 18 33 9 77 18 99 21 21 4 41 8 45 10 3 2 34 7 68 11 34 3 72 8 85
10 13 3 64 8 113 11 50 3 91 7 92 8 5 4 250 -3 323 -9z"/>
<path d="M3787 5294 c-1 -1 -54 -4 -117 -8 -63 -3 -133 -8 -154 -11 -127 -18
-394 -89 -525 -141 -37 -15 -75 -24 -90 -21 -14 3 -49 1 -78 -3 -135 -22 -261
-127 -334 -276 l-34 -69 -3 -658 -3 -658 -36 -32 c-20 -18 -51 -54 -68 -82
-115 -183 -94 -380 57 -521 l52 -49 1 -455 c1 -250 5 -471 9 -490 38 -181 207
-329 396 -346 158 -15 286 50 374 189 74 118 79 151 77 554 l-2 343 104 -6
c204 -12 387 -7 492 12 233 42 409 107 585 217 36 23 67 44 70 47 3 3 34 29
70 57 245 193 440 517 486 809 3 21 8 43 11 47 12 20 11 307 -2 392 -39 254
-150 500 -318 700 -99 118 -196 199 -332 278 -75 44 -245 121 -245 112 0 -2
-18 2 -41 10 -59 21 -190 44 -302 53 -54 4 -99 7 -100 6z m179 -247 c12 -3 37
-8 55 -11 372 -61 690 -345 823 -736 80 -238 81 -478 1 -716 -55 -165 -140
-299 -275 -434 -145 -145 -296 -238 -495 -303 -161 -53 -229 -62 -460 -62
-177 0 -231 3 -426 22 -41 4 -83 7 -94 7 -20 0 -20 -6 -20 -474 0 -364 -3
-482 -13 -505 -23 -54 -63 -103 -94 -116 -79 -33 -189 4 -243 80 l-30 43 -3
526 -3 527 -38 28 c-22 15 -43 27 -48 27 -12 0 -67 59 -81 85 -37 72 -8 165
69 224 27 20 58 43 70 52 l22 15 1 696 1 695 35 52 c19 29 55 66 80 82 41 28
50 30 98 24 46 -6 66 -2 145 29 182 70 390 124 542 142 27 4 51 8 53 9 6 5
305 -3 328 -8z"/>
<path d="M3615 4669 c-22 -4 -58 -11 -80 -14 -22 -4 -42 -8 -46 -10 -3 -2 -20
-7 -38 -10 -66 -11 -332 -111 -367 -136 -11 -9 -14 -1282 -3 -1293 7 -7 82
-19 229 -35 80 -9 398 -7 440 3 14 3 43 8 66 11 67 8 193 53 304 108 88 44
119 66 191 137 67 67 94 101 121 160 144 303 73 674 -174 906 -98 92 -178 133
-318 164 -65 15 -268 20 -325 9z m245 -233 c110 -18 171 -46 235 -110 178
-176 228 -425 127 -634 -44 -91 -153 -174 -317 -243 -102 -43 -338 -64 -547
-49 l-48 4 -1 48 c0 26 0 113 0 193 0 80 0 270 0 423 l1 278 53 18 c83 28 179
56 217 62 123 21 194 24 280 10z"/>
</g>
</svg>
